<svg version="1.1" id="Layer_1" xmlns="http://www.w3.org/2000/svg" xmlns:xlink="http://www.w3.org/1999/xlink" x="0px" y="0px"
	 width="100%" viewBox="0 0 1024 1024" enable-background="new 0 0 1024 1024" xml:space="preserve">
<path fill="#000000" opacity="1.000000" stroke="none" 
	d="
M592.451538,342.516235 
	C596.978149,331.203583 601.436768,320.277771 605.706726,309.278748 
	C607.003235,305.939148 608.610657,304.999207 612.076294,306.562988 
	C619.190979,309.773407 626.639771,312.270782 633.648438,315.683228 
	C649.301270,323.304535 654.387268,338.396545 646.649963,353.136566 
	C640.761169,364.354980 628.534729,369.665558 615.675415,365.821503 
	C607.258362,363.305298 599.167542,359.707733 590.895203,356.691742 
	C588.222839,355.717468 587.742188,354.127228 588.784424,351.668335 
	C590.016602,348.761230 591.140320,345.808136 592.451538,342.516235 
M631.046753,351.618500 
	C640.573792,340.711090 638.026550,329.370911 624.812561,323.888763 
	C622.821655,323.062744 620.801453,322.306244 618.821350,321.455841 
	C616.734436,320.559479 615.368347,321.113007 614.524658,323.251038 
	C611.422424,331.113098 608.273438,338.956696 605.147522,346.809418 
	C604.644897,348.072266 604.279358,349.204163 605.625061,350.361053 
	C611.540771,355.446930 624.034180,356.365112 631.046753,351.618500 
z"/>
<path fill="#000000" opacity="1.000000" stroke="none" 
	d="
M195.883698,643.734497 
	C196.277618,634.632690 194.530502,626.030823 195.601013,617.377747 
	C197.475616,602.224976 207.780640,592.832458 222.673492,592.853821 
	C236.732315,592.874084 247.536285,602.842590 249.046005,617.742371 
	C249.849625,625.673584 249.857849,633.684570 250.258957,641.657898 
	C250.390976,644.282043 249.966187,646.185120 246.653687,646.311340 
	C231.364441,646.893616 216.079025,647.579834 200.794525,648.279175 
	C197.823624,648.415100 195.914703,647.508667 195.883698,643.734497 
M238.621536,630.005615 
	C238.706467,626.520691 238.584076,623.076721 237.877213,619.621155 
	C236.170715,611.278748 230.933838,606.524170 222.944977,606.360657 
	C214.371277,606.185120 209.038681,610.413879 206.937424,618.928101 
	C205.874527,623.234924 206.448242,627.475586 207.061493,631.754517 
	C207.354248,633.797119 208.303558,634.583984 210.369415,634.484192 
	C217.818787,634.124390 225.280167,633.977539 232.721130,633.501892 
	C234.840134,633.366455 237.597214,633.862732 238.621536,630.005615 
z"/>
<path fill="#000000" opacity="1.000000" stroke="none" 
	d="
M357.843933,391.233765 
	C354.839508,400.085114 349.055939,405.210052 339.878357,406.859436 
	C341.173920,410.708374 344.127106,413.214508 346.500427,416.030212 
	C349.236542,419.276306 350.060944,421.902679 345.684601,424.332123 
	C344.541779,424.966583 343.620758,426.006256 342.613525,426.877899 
	C340.868500,428.387970 339.470093,428.151581 338.007874,426.327545 
	C327.592773,413.335358 317.127441,400.383392 306.657318,387.435486 
	C305.268341,385.717804 304.976959,384.122040 307.053955,382.833008 
	C310.074463,380.958435 311.915375,376.541870 316.677490,378.496033 
	C320.217316,369.274353 327.128479,364.227783 336.512146,364.036224 
	C345.873810,363.845093 352.228668,369.503204 356.391144,377.674927 
	C358.533264,381.880219 358.678741,386.295654 357.843933,391.233765 
M336.361237,397.454193 
	C337.922363,396.907623 339.609680,396.581604 341.021301,395.773773 
	C345.535461,393.190552 346.903961,388.005157 344.506348,383.234650 
	C341.816010,377.881683 336.105225,375.262695 331.328247,377.191101 
	C326.226135,379.250763 323.744293,384.288055 325.641846,389.410095 
	C327.331360,393.970581 330.808502,396.625458 336.361237,397.454193 
z"/>
<path fill="#000000" opacity="1.000000" stroke="none" 
	d="
M800.471863,512.510437 
	C803.786865,513.012512 807.263672,519.272400 805.813538,522.905334 
	C804.813354,525.411072 805.786438,526.454285 806.946716,528.060486 
	C812.615479,535.907715 812.751709,545.175720 807.398865,552.689331 
	C802.177612,560.018250 791.416626,563.560791 782.426697,560.910339 
	C774.627991,558.611084 768.498840,550.599365 768.047485,541.762512 
	C767.932190,539.505371 768.534424,537.211548 768.851990,534.558777 
	C764.438721,534.689209 760.602783,536.269531 756.712952,537.349548 
	C753.431824,538.260559 751.621460,537.579956 751.055298,534.123718 
	C750.868225,532.981750 750.568420,531.841553 750.174316,530.753296 
	C748.894531,527.219971 749.725525,525.403503 753.742920,524.430969 
	C769.238159,520.679810 784.647034,516.571899 800.471863,512.510437 
M778.619385,537.099121 
	C777.965332,542.164490 779.839478,546.027100 784.571960,547.946594 
	C789.167053,549.810303 793.510620,548.489990 796.989502,545.209595 
	C800.269226,542.116882 800.454712,538.171631 798.636353,534.175293 
	C796.938965,530.444580 793.689026,528.524597 789.846130,528.731201 
	C784.849976,529.000000 780.327209,530.693542 778.619385,537.099121 
z"/>
<path fill="#000000" opacity="1.000000" stroke="none" 
	d="
M527.561768,307.648865 
	C527.597168,304.015686 527.894653,300.825714 527.579834,297.697388 
	C527.078552,292.716705 529.273010,291.390533 533.919800,291.610352 
	C540.467590,291.920074 541.057922,292.040802 540.974915,297.655457 
	C540.837219,306.970673 540.675049,316.292206 540.191956,325.593842 
	C539.650696,336.016907 533.371948,343.229126 523.199768,345.705353 
	C509.578186,349.021271 497.770538,343.880951 493.062103,332.693756 
	C491.732666,329.535034 491.708771,326.208496 491.303986,322.920807 
	C491.202728,322.098450 491.194672,321.261017 491.194000,320.430450 
	C491.186829,311.128326 491.189453,301.826233 491.189453,292.655334 
	C495.332550,290.932892 498.834381,291.679840 502.233002,291.802673 
	C505.355225,291.915497 505.059998,294.584045 505.072906,296.693512 
	C505.129913,306.012390 504.870209,315.339966 505.191559,324.648315 
	C505.442200,331.909851 509.303680,335.120697 516.477905,334.943695 
	C522.552551,334.793823 526.124512,331.686584 526.658020,325.563080 
	C527.163086,319.766754 527.268127,313.935608 527.561768,307.648865 
z"/>
<path fill="#000000" opacity="1.000000" stroke="none" 
	d="
M357.866638,823.176941 
	C359.621552,825.626221 361.301636,827.717712 362.613586,830.019165 
	C365.788574,835.588745 365.322266,836.485107 359.629608,839.456360 
	C356.527985,841.075195 354.971069,840.629700 353.624695,837.272095 
	C351.255768,831.364258 346.992676,826.945618 341.389862,823.915283 
	C339.104889,822.679443 336.723358,821.983093 334.570618,824.338013 
	C332.408203,826.703735 333.968842,828.752319 335.250305,830.620422 
	C338.071014,834.732422 341.267365,838.593018 343.985474,842.767761 
	C348.571136,849.810913 348.559235,855.774414 344.321564,861.259583 
	C340.122589,866.694702 333.250946,868.734497 325.879669,866.107788 
	C316.900543,862.908081 310.384033,856.632446 305.561768,848.494324 
	C304.198059,846.192932 304.401917,844.477600 306.895721,843.162659 
	C308.937836,842.085938 310.795929,840.626892 313.360809,840.157532 
	C315.263550,842.880066 316.972656,845.718262 319.073273,848.228821 
	C321.528015,851.162537 324.266693,853.938049 328.276245,854.696899 
	C330.319366,855.083679 332.263855,854.780884 333.663330,852.946716 
	C335.098694,851.065430 334.109741,849.410461 333.053528,847.927246 
	C330.062897,843.727783 326.861755,839.677063 323.908020,835.452820 
	C318.900757,828.291748 318.750641,822.604370 323.210175,816.616516 
	C327.130402,811.352905 334.398956,809.487671 341.776825,811.968140 
	C348.092896,814.091675 353.197693,818.026306 357.866638,823.176941 
z"/>
<path fill="#000000" opacity="1.000000" stroke="none" 
	d="
M799.961548,711.683350 
	C808.066650,716.987366 808.904663,724.490173 806.980774,732.602966 
	C805.382202,739.343567 801.880554,745.211487 797.240112,750.389404 
	C794.496277,753.451172 792.112671,753.839050 788.998230,750.542603 
	C786.260315,747.644592 785.037048,745.624817 788.810242,742.577332 
	C792.792908,739.360657 795.071594,734.878296 796.191772,729.843201 
	C796.763916,727.271118 796.110779,725.131165 793.854675,723.806335 
	C791.512390,722.431030 789.624573,723.810730 788.169861,725.501465 
	C784.589966,729.662048 781.371033,734.152649 777.604126,738.128845 
	C770.619629,745.501404 762.440735,745.879883 756.109192,739.329285 
	C751.523987,734.585449 750.763611,728.611267 751.989380,722.538025 
	C753.670776,714.207947 757.592590,706.888733 763.732605,700.905518 
	C768.413452,696.344299 769.394226,696.440552 773.553894,701.476501 
	C774.386169,702.484070 775.476013,703.350342 775.664612,704.988647 
	C774.593872,707.192993 772.193604,708.284851 770.519104,710.078613 
	C767.056274,713.787720 764.112549,717.784302 763.231262,722.907776 
	C762.808777,725.364014 762.362183,728.142822 765.251221,729.472412 
	C767.825684,730.657166 769.777100,728.955688 771.325134,727.168152 
	C774.809082,723.145142 777.947937,718.808594 781.586914,714.937805 
	C787.106750,709.066223 792.093384,708.279297 799.961548,711.683350 
z"/>
<path fill="#000000" opacity="1.000000" stroke="none" 
	d="
M719.950806,787.009277 
	C713.320496,781.157471 713.452454,781.215576 719.082825,775.246094 
	C721.671448,772.501648 723.502197,772.682129 726.102905,775.095825 
	C737.696594,785.855774 749.324646,796.582397 761.132385,807.105530 
	C764.504089,810.110352 763.735657,812.233521 760.924988,814.768127 
	C758.387756,817.056030 756.551147,821.331421 752.291260,816.719238 
	C749.603882,813.809631 746.431030,811.348389 743.535583,808.739746 
	C741.116699,809.581909 741.286987,811.762024 740.575867,813.310364 
	C734.866272,825.741943 722.421448,828.770203 711.985474,820.020325 
	C706.631042,815.530945 701.624939,810.628479 696.353455,806.036682 
	C694.024475,804.007996 694.052368,802.266663 696.248779,800.263855 
	C697.353271,799.256714 698.418762,798.178772 699.343018,797.007507 
	C701.358582,794.453430 703.251038,794.532593 705.559448,796.745117 
	C709.765259,800.776306 714.048584,804.736938 718.461670,808.538818 
	C723.212280,812.631287 726.875183,812.692139 730.314026,809.080322 
	C733.878296,805.336609 733.690430,800.395325 729.610962,796.218140 
	C726.588257,793.122925 723.355225,790.233154 719.950806,787.009277 
z"/>
<path fill="#000000" opacity="1.000000" stroke="none" 
	d="
M232.220840,707.237183 
	C234.065765,706.507751 235.861664,706.536255 237.313965,704.501770 
	C233.871674,702.485474 230.695496,699.983459 227.087814,698.641663 
	C218.852448,695.578796 216.536957,688.902893 215.107086,680.443542 
	C220.461304,681.979065 224.759918,684.706116 229.260880,686.879456 
	C236.755096,690.498108 236.730484,690.566833 241.276413,683.769165 
	C245.031464,678.154175 248.768829,672.527344 252.636200,666.722412 
	C258.224579,673.510315 258.719238,679.786255 254.663269,685.974182 
	C253.204575,688.199646 251.732132,690.419434 250.373581,692.705750 
	C249.560867,694.073425 247.750000,695.426514 248.776413,697.111206 
	C249.941483,699.023621 252.139511,699.742737 254.400528,699.776733 
	C255.214462,699.789001 256.042999,699.552551 256.847504,699.357788 
	C263.646820,697.711609 266.961884,700.281128 267.272766,707.291199 
	C267.359772,709.252808 266.307678,709.897888 264.753296,710.393616 
	C248.759613,715.493469 232.766312,720.594727 216.789368,725.746643 
	C214.406219,726.515076 212.940063,725.884521 212.208420,723.484558 
	C211.723679,721.894531 211.289703,720.275452 210.637924,718.752869 
	C209.371414,715.794250 210.162872,714.191895 213.342758,713.268066 
	C219.564301,711.460571 225.699402,709.355469 232.220840,707.237183 
z"/>
<path fill="#000000" opacity="1.000000" stroke="none" 
	d="
M492.599854,913.525574 
	C493.429291,902.922729 493.428436,902.937378 483.037598,902.330200 
	C480.218262,902.165466 477.399719,901.639587 474.591492,901.709412 
	C469.609833,901.833252 469.035614,899.346130 469.542877,895.079956 
	C469.956635,891.600220 471.320648,890.400818 474.604401,890.672668 
	C479.572083,891.083984 484.559235,891.280090 489.518097,891.770386 
	C492.928772,892.107544 494.909790,891.352661 494.886536,887.379639 
	C494.867279,884.076172 495.521210,880.774353 495.711823,877.462402 
	C495.891388,874.342285 497.142303,872.845581 500.463989,873.486267 
	C501.918915,873.766907 503.448669,873.720215 504.944244,873.716980 
	C508.159119,873.710022 509.412109,875.308533 509.139923,878.439636 
	C507.829895,893.509338 506.507965,908.578491 505.321472,923.658142 
	C505.075195,926.788147 503.932251,928.134094 500.660370,927.838318 
	C489.893524,926.864990 479.119659,925.944580 468.334442,925.210266 
	C463.732330,924.896912 464.197693,922.163635 464.479401,918.926758 
	C464.766571,915.627686 465.346802,913.640442 469.499878,914.210205 
	C475.578705,915.044250 481.741272,915.298706 487.875732,915.676880 
	C489.592255,915.782715 491.673859,916.344177 492.599854,913.525574 
z"/>
<path fill="#000000" opacity="1.000000" stroke="none" 
	d="
M357.560730,347.675110 
	C369.440704,334.865021 384.832947,335.168213 393.453461,347.975647 
	C395.735260,351.365631 396.030487,353.505676 391.765564,355.723969 
	C384.603729,359.449066 377.272339,362.970367 370.544464,367.679138 
	C375.410645,372.665283 382.963104,370.870178 387.759003,363.901459 
	C388.891479,362.255890 389.483612,360.599274 392.296631,361.302582 
	C398.909851,362.956085 400.122528,365.408600 395.858948,370.762451 
	C389.117889,379.227448 380.241913,383.101532 369.430603,381.221161 
	C356.145599,378.910492 347.562408,360.514648 357.560730,347.675110 
M378.133118,353.923065 
	C379.055817,353.301910 380.338684,353.106476 380.755066,351.531067 
	C377.113617,348.181854 373.120422,348.185791 369.160461,350.786804 
	C365.967712,352.883881 364.059448,355.754639 365.958557,360.464966 
	C370.036713,358.272400 373.785492,356.256927 378.133118,353.923065 
z"/>
<path fill="#000000" opacity="1.000000" stroke="none" 
	d="
M755.380005,423.954529 
	C758.964478,433.002075 756.322510,440.274658 750.184448,446.599823 
	C746.499329,450.397247 745.220215,450.215851 741.937317,446.106537 
	C737.891113,441.041840 733.874878,435.952789 729.781433,430.926575 
	C728.783386,429.701111 728.085449,428.007233 726.150452,427.853180 
	C723.169006,433.678253 725.876404,440.197021 732.662109,443.637695 
	C736.516296,445.591919 737.693420,448.798584 735.974243,452.635468 
	C734.700378,455.478607 732.330933,454.644196 730.404480,453.976044 
	C721.659790,450.943298 716.645996,444.227020 713.984375,435.816528 
	C710.908691,426.097534 715.336914,416.301300 724.421204,411.376312 
	C733.076538,406.683899 744.110962,408.782990 750.726624,416.460724 
	C752.569946,418.599884 754.249878,420.887329 755.380005,423.954529 
M743.723572,423.883636 
	C740.830750,420.626007 737.476074,419.264435 732.598450,421.291107 
	C736.220947,426.205017 739.364624,430.891418 743.993835,434.767548 
	C746.702087,430.876038 746.160461,427.680878 743.723572,423.883636 
z"/>
<path fill="#000000" opacity="1.000000" stroke="none" 
	d="
M686.756470,379.535370 
	C684.679993,384.684845 681.981384,384.400330 678.147278,381.740051 
	C671.640686,377.225433 664.833557,373.143951 657.966064,368.761292 
	C656.629761,375.918091 661.214050,381.242859 669.223938,382.592865 
	C673.261597,383.273376 675.844299,387.126099 674.897705,391.010284 
	C674.439819,392.889099 672.931885,393.020660 671.425537,393.215637 
	C660.371643,394.646332 647.087952,383.801056 645.131775,371.743622 
	C643.405884,361.105743 651.796021,350.073975 663.520813,348.308014 
	C672.134888,347.010559 679.252319,350.639618 684.637268,357.171173 
	C690.142822,363.849060 690.609436,371.390259 686.756470,379.535370 
M662.855652,361.274994 
	C666.669006,365.711121 671.690002,368.170502 677.137268,370.692017 
	C678.433655,366.194885 677.189392,363.164734 674.062134,361.002869 
	C670.553040,358.577057 666.807312,358.001282 662.855652,361.274994 
z"/>
<path fill="#000000" opacity="1.000000" stroke="none" 
	d="
M705.547241,822.646973 
	C711.353333,833.430115 710.254517,842.607483 702.482056,850.321350 
	C694.564331,858.179138 684.142944,860.103516 675.114319,855.374878 
	C666.600098,850.915588 661.955994,840.378784 664.710510,831.218140 
	C667.677856,821.350098 674.661194,815.557007 684.519836,813.604858 
	C693.167358,811.892517 700.122437,815.311584 705.547241,822.646973 
M692.046753,827.314819 
	C690.877258,826.711853 689.768372,825.891541 688.527222,825.545410 
	C684.299072,824.366333 679.614807,826.391296 677.448059,830.166748 
	C675.225708,834.039001 676.185364,838.992310 679.901978,842.832886 
	C683.077087,846.113892 687.878174,846.978943 691.721008,844.889160 
	C695.872986,842.631348 697.424377,839.052673 696.641785,834.484619 
	C696.177856,831.776733 694.550659,829.669434 692.046753,827.314819 
z"/>
<path fill="#000000" opacity="1.000000" stroke="none" 
	d="
M255.434753,458.719666 
	C260.059296,458.454590 264.117401,458.742157 268.080078,460.435608 
	C271.385712,461.848236 272.325592,463.460571 270.436951,466.869476 
	C267.217865,472.679749 264.360504,478.693054 261.442444,484.665649 
	C260.750092,486.082794 259.478058,487.401031 260.019714,489.226562 
	C266.280396,489.996979 271.321686,484.617737 271.608032,476.924103 
	C271.757629,472.903534 275.130096,470.026489 279.113403,470.349396 
	C281.096954,470.510193 281.485626,471.968933 281.914368,473.361938 
	C284.996826,483.377777 274.935486,499.271698 263.775543,502.075439 
	C252.601608,504.882690 240.372253,497.203918 237.904129,485.830872 
	C235.333908,473.987518 242.683533,462.342834 255.434753,458.719666 
M254.103317,470.429871 
	C247.356796,474.774017 246.113968,480.699188 251.350632,485.458832 
	C254.773209,480.963470 257.019531,475.979218 259.081055,470.973633 
	C257.438629,469.734650 256.112366,470.116760 254.103317,470.429871 
z"/>
<path fill="#000000" opacity="1.000000" stroke="none" 
	d="
M768.665955,512.785095 
	C757.039490,509.953339 751.826538,501.842102 750.128601,491.313416 
	C748.771301,482.896698 752.270813,476.016571 759.295898,471.156403 
	C772.209900,462.222107 789.032654,469.658813 793.189209,486.068970 
	C797.061890,501.358154 785.203979,514.549255 768.665955,512.785095 
M774.104492,480.323517 
	C765.094177,480.604797 759.713501,486.107056 761.617676,493.092590 
	C762.868469,497.681122 766.360229,500.202820 771.265076,500.059967 
	C777.071960,499.890839 781.657166,496.303070 782.512207,491.259430 
	C783.267517,486.803955 780.438232,482.780762 774.104492,480.323517 
z"/>
<path fill="#000000" opacity="1.000000" stroke="none" 
	d="
M314.489746,406.510132 
	C321.652130,414.927429 322.701843,422.839478 318.035339,431.563477 
	C313.257385,440.495728 303.608185,446.198364 294.878235,445.249268 
	C286.353699,444.322479 278.676361,437.422791 276.326385,428.576538 
	C274.081329,420.125275 279.004913,409.011475 287.350433,403.692474 
	C296.742676,397.706299 305.235260,398.514465 314.489746,406.510132 
M288.368164,425.160645 
	C290.131439,429.312134 293.240631,431.948730 297.663544,432.620880 
	C302.342804,433.331970 305.768097,431.178375 307.778107,426.982239 
	C309.877289,422.599854 308.444580,418.835236 305.153809,415.708282 
	C301.762024,412.485382 297.699005,410.914429 293.302368,413.245392 
	C288.939026,415.558685 286.789459,419.319427 288.368164,425.160645 
z"/>
<path fill="#000000" opacity="1.000000" stroke="none" 
	d="
M230.171631,589.321838 
	C218.768982,587.841980 211.169952,580.707642 209.913498,570.712341 
	C208.607224,560.320801 213.730713,550.724548 222.641785,546.962585 
	C223.858261,546.449036 225.141220,546.003479 226.437103,545.781616 
	C236.970184,543.978821 238.742996,545.838440 237.007263,556.152527 
	C235.920761,562.608765 234.363403,569.037720 234.313599,575.787964 
	C241.349350,574.243103 244.380356,567.705627 242.034805,560.004456 
	C241.423019,557.995728 240.192154,556.284790 242.667603,554.318542 
	C247.934555,550.135071 250.072037,550.610962 252.120438,557.018738 
	C257.288147,573.184204 246.709351,589.078003 230.171631,589.321838 
M226.745468,570.054260 
	C227.549057,566.038086 228.244629,562.013306 228.023102,557.817627 
	C221.046585,559.468018 217.909744,565.875122 221.070236,571.502502 
	C221.818634,572.835083 222.779816,574.237488 224.408325,574.200378 
	C226.430573,574.154358 226.217346,572.182983 226.745468,570.054260 
z"/>
<path fill="#000000" opacity="1.000000" stroke="none" 
	d="
M296.729126,792.179138 
	C289.904358,792.278076 286.101349,788.101929 282.398712,783.698608 
	C280.407776,781.330933 279.319336,778.158020 276.197937,776.564270 
	C273.117462,778.720825 273.030060,781.362000 274.594238,784.378174 
	C276.583557,788.213989 279.705688,790.887390 283.400421,792.961121 
	C287.311279,795.156189 284.247742,797.469910 283.502441,799.696716 
	C282.693146,802.114685 281.176880,803.399475 278.577728,801.982544 
	C269.982697,797.297058 263.754456,790.583496 261.877716,780.756470 
	C260.676514,774.466614 263.459167,769.317078 268.371216,765.468323 
	C273.215759,761.672424 278.253876,758.122131 283.232941,754.499756 
	C288.549927,750.631531 294.244446,752.745850 294.934204,759.482056 
	C295.222412,762.296875 296.385773,762.990051 298.176544,764.136414 
	C303.031311,767.244446 306.208466,771.669006 307.193939,777.354187 
	C308.468994,784.709717 305.115845,789.441895 296.729126,792.179138 
M291.064301,780.106506 
	C291.545319,780.201904 292.060089,780.458130 292.501617,780.365417 
	C294.661346,779.912109 296.392700,778.634033 296.201965,776.364075 
	C295.897400,772.739014 293.529572,770.412537 290.273041,768.994019 
	C287.357513,767.724060 285.228241,768.702637 283.499786,771.304688 
	C285.550964,774.533447 287.309753,777.728882 291.064301,780.106506 
z"/>
<path fill="#000000" opacity="1.000000" stroke="none" 
	d="
M629.350830,847.253784 
	C637.074524,847.504150 641.768372,850.636841 643.172058,856.153137 
	C644.688171,862.110962 642.215820,867.289551 635.883240,871.096191 
	C633.894470,872.291687 631.722778,873.179688 629.655640,874.248718 
	C627.781982,875.217712 625.478333,875.412720 623.910339,877.441223 
	C625.699707,881.785828 629.306641,881.305603 632.618164,880.334351 
	C635.979980,879.348328 639.007935,877.396118 641.138367,874.496338 
	C643.373596,871.453857 645.299194,872.832886 647.324890,874.622925 
	C649.282166,876.352356 652.055420,877.844604 649.207581,880.982422 
	C642.260437,888.637146 633.939819,893.304565 623.282288,892.186768 
	C618.082336,891.641357 614.394531,888.411621 612.209534,883.811401 
	C608.857666,876.754272 605.854126,869.532471 602.620667,862.417786 
	C601.674500,860.335999 601.970337,858.892517 604.177673,858.077209 
	C607.431580,856.875427 610.289734,853.772583 614.374268,856.070312 
	C617.900330,850.915955 623.053589,848.479065 629.350830,847.253784 
M631.140625,860.285461 
	C629.215454,857.156677 626.511169,857.461426 623.745972,858.771484 
	C620.902039,860.118774 618.817871,862.265930 618.532471,865.550842 
	C618.401978,867.052979 618.933594,868.634094 620.720703,869.001709 
	C623.592773,869.592346 630.441833,864.318909 631.140625,860.285461 
z"/>
<path fill="#000000" opacity="1.000000" stroke="none" 
	d="
M816.256348,576.103394 
	C822.029480,592.207153 815.383789,604.892578 800.338623,607.632385 
	C796.309998,608.366089 794.772156,607.050598 794.488525,603.252441 
	C793.871948,594.996216 793.164917,586.746643 792.488281,578.412781 
	C786.155518,580.376038 783.815063,588.274719 788.190979,594.890564 
	C790.953247,599.066711 789.052551,601.083984 786.581787,603.709106 
	C784.582520,605.833313 782.771851,605.497131 781.157043,603.447266 
	C775.074036,595.725830 774.167358,586.994324 777.121277,577.969910 
	C779.937683,569.365784 786.508179,564.620178 795.349976,563.890503 
	C804.696350,563.119263 811.664124,567.452026 816.256348,576.103394 
M808.627258,586.424072 
	C807.632935,579.767090 805.822815,577.757812 800.334961,577.959412 
	C800.822449,583.408997 801.306519,588.820251 801.811707,594.467773 
	C806.310913,593.342773 807.905823,590.655579 808.627258,586.424072 
z"/>
<path fill="#000000" opacity="1.000000" stroke="none" 
	d="
M420.164215,880.363647 
	C421.547821,875.320618 422.652222,870.619812 424.086243,866.021851 
	C424.718933,863.993286 424.377563,860.430786 427.376190,860.669617 
	C430.889679,860.949524 435.251953,860.385986 437.291412,864.745422 
	C437.424896,865.030823 437.651428,865.272705 437.964203,865.720032 
	C443.909454,863.881042 449.703339,864.424805 455.151855,867.673218 
	C461.127838,871.236206 464.221649,877.919434 462.658234,884.711304 
	C460.943787,892.159241 458.868744,899.523560 457.002777,906.937378 
	C456.293304,909.756409 454.880219,910.507385 451.916931,909.803650 
	C443.642853,907.838745 443.615082,907.982971 445.661499,899.782288 
	C446.789154,895.263367 447.944244,890.750305 448.993103,886.212891 
	C450.332001,880.420959 448.872589,877.205872 444.375854,875.752563 
	C439.565216,874.197815 435.232086,876.317932 433.469086,881.683960 
	C431.655365,887.204285 430.255890,892.873169 428.927795,898.536255 
	C428.082886,902.138855 426.688202,903.548523 422.688538,902.346924 
	C414.930298,900.016174 414.863708,900.233643 416.957428,892.306824 
	C417.975311,888.453064 418.998383,884.600708 420.164215,880.363647 
z"/>
<path fill="#000000" opacity="1.000000" stroke="none" 
	d="
M743.560364,745.239380 
	C757.132507,739.035706 769.662170,748.833374 772.587891,758.089905 
	C776.157593,769.383789 768.697388,784.142273 757.309143,787.448975 
	C754.741211,788.194641 751.602356,789.788818 749.981323,786.048279 
	C748.561340,782.771851 751.028137,777.250183 754.033630,776.195129 
	C759.972290,774.110413 762.907532,769.320801 761.512390,763.991638 
	C760.267395,759.236206 754.224182,755.502869 748.947632,756.229309 
	C743.731262,756.947510 740.504944,761.325928 741.237793,767.671021 
	C742.035156,774.574524 735.681641,773.340271 733.096924,776.236938 
	C724.684082,769.201233 731.101990,751.183655 743.560364,745.239380 
z"/>
<path fill="#000000" opacity="1.000000" stroke="none" 
	d="
M266.449799,758.915039 
	C255.605347,762.071716 246.787796,758.881287 240.910141,749.955383 
	C235.158844,741.221375 234.877808,732.473022 240.227905,725.850281 
	C242.671646,725.967712 244.234009,727.889221 246.178802,729.044312 
	C248.417908,730.374329 249.229721,731.974365 248.353287,734.825623 
	C246.646118,740.379578 249.436523,745.472168 254.556091,747.163696 
	C259.572540,748.821167 266.114960,745.622559 268.105164,740.539551 
	C270.069794,735.521851 267.734924,730.019836 262.645355,727.673096 
	C259.164062,726.067993 257.163879,720.085571 259.218536,717.045044 
	C260.665527,714.903870 262.801971,715.723083 264.664459,716.307861 
	C274.292603,719.330505 278.572510,726.852661 280.091492,736.011108 
	C281.568756,744.917969 277.821594,751.926941 270.362274,756.924072 
	C269.263885,757.659912 268.007629,758.160034 266.449799,758.915039 
z"/>
<path fill="#000000" opacity="1.000000" stroke="none" 
	d="
M690.405640,391.479828 
	C693.366577,383.164185 696.182068,375.212219 699.050110,367.111694 
	C703.127625,368.357544 705.195129,371.320190 707.803101,373.520172 
	C709.596313,375.032806 708.663391,376.893890 708.059082,378.593903 
	C705.998962,384.389679 703.867920,390.160248 701.803284,395.954468 
	C701.268799,397.454529 700.878357,399.005951 700.120056,401.543182 
	C706.733032,398.511322 712.437073,395.954468 718.090698,393.290619 
	C726.821411,389.177094 727.939331,389.463501 733.741455,397.690979 
	C733.194153,399.328003 731.652710,399.742004 730.332031,400.365204 
	C719.502930,405.475342 708.547546,410.333801 697.865845,415.734161 
	C692.546570,418.423401 690.886597,413.757721 687.819275,411.814972 
	C684.997192,410.027557 684.463196,407.686218 685.760071,404.533844 
	C687.465454,400.388214 688.778442,396.081146 690.405640,391.479828 
z"/>
<path fill="#000000" opacity="1.000000" stroke="none" 
	d="
M226.229813,502.398163 
	C227.299652,499.764252 227.360275,497.117798 229.226837,495.233337 
	C231.435349,494.944916 232.559235,496.648102 233.874557,497.761963 
	C242.631516,505.177734 251.292648,512.706604 260.047028,520.125488 
	C262.196899,521.947449 264.072723,523.584167 262.478699,526.794617 
	C260.691315,530.394592 261.414276,535.699890 255.257980,536.092102 
	C246.144867,536.672668 237.058411,537.673645 227.944901,538.245117 
	C223.873108,538.500427 219.796906,539.995056 215.690262,538.772766 
	C215.263611,529.561829 217.911774,526.460754 226.467957,525.843445 
	C232.678345,525.395325 238.886520,524.916626 245.095673,524.451538 
	C245.254379,524.023987 245.413086,523.596497 245.571793,523.168945 
	C240.000595,518.304321 234.430664,513.438293 228.857452,508.576019 
	C227.095139,507.038452 225.095337,505.619324 226.229813,502.398163 
z"/>
<path fill="#000000" opacity="1.000000" stroke="none" 
	d="
M290.749451,818.647583 
	C289.915558,817.637634 289.321533,816.805908 288.558960,816.179382 
	C285.630646,813.773499 285.466095,811.678467 288.416901,808.890686 
	C291.135742,806.322144 293.223114,805.571594 295.699738,808.873230 
	C298.196350,812.201477 300.650299,812.044739 303.349518,808.933655 
	C305.413727,806.554443 307.871521,804.521606 310.042755,802.229065 
	C313.539856,798.536377 313.621948,796.359314 309.486053,793.801086 
	C305.037323,791.049377 308.468262,788.755005 309.342407,786.328918 
	C310.469208,783.201660 312.641235,783.740295 314.982910,784.960327 
	C326.401520,790.909546 328.232697,802.471069 319.155640,811.596069 
	C317.045197,813.717590 314.916443,815.825684 312.708069,817.843567 
	C310.394501,819.957642 308.575989,821.608521 311.034851,825.280701 
	C313.036011,828.269348 308.877380,829.473816 307.406830,831.407959 
	C306.138367,833.076111 304.613647,832.859497 303.184021,831.374695 
	C302.621796,830.790833 301.908447,830.352417 301.443329,829.988281 
	C300.017548,829.842712 299.355286,830.673340 298.625336,831.318726 
	C293.659485,835.709534 293.819458,835.551819 288.962799,830.949829 
	C285.768036,827.922546 285.047394,825.488831 288.881927,822.557434 
	C289.958405,821.734558 291.464020,820.806458 290.749451,818.647583 
z"/>
<path fill="#000000" opacity="1.000000" stroke="none" 
	d="
M277.468994,443.499878 
	C283.026276,447.222504 288.197662,450.881165 293.568542,454.218842 
	C296.724365,456.179993 297.229523,458.170166 294.872772,461.022705 
	C293.815918,462.301880 292.918823,463.720032 292.017395,465.119019 
	C290.763214,467.065552 289.339264,467.251312 287.428040,465.952423 
	C273.519867,456.500336 259.594025,447.074066 245.636703,437.694794 
	C243.507660,436.264038 243.181763,434.776001 244.700058,432.734985 
	C245.692154,431.401245 246.648514,430.021149 247.444290,428.565277 
	C249.047943,425.631348 250.973190,425.665771 253.536682,427.419525 
	C261.369232,432.777985 269.284119,438.016113 277.468994,443.499878 
z"/>
<path fill="#000000" opacity="1.000000" stroke="none" 
	d="
M679.478638,884.219055 
	C670.471619,890.605103 670.385376,890.656189 665.133057,881.782837 
	C657.844299,869.468994 650.891113,856.952393 643.408325,844.759338 
	C640.063965,839.309814 644.718323,838.748840 647.348511,836.795715 
	C650.110840,834.744507 652.357727,834.139954 654.548096,837.985168 
	C662.536194,852.007935 670.809448,865.868164 678.952698,879.802795 
	C679.689209,881.063110 680.708130,882.334412 679.478638,884.219055 
z"/>
<path fill="#000000" opacity="1.000000" stroke="none" 
	d="
M410.882690,878.769531 
	C407.186676,887.731323 403.376343,896.243591 400.201202,904.986572 
	C398.223663,910.431885 395.199982,908.735596 391.620453,907.404541 
	C388.026550,906.067993 386.037628,904.802917 388.005554,900.244019 
	C394.264069,885.745605 400.189575,871.097839 405.941650,856.389648 
	C407.604248,852.138367 409.840515,852.132019 413.147919,853.954651 
	C416.053864,855.556091 420.805878,855.582275 417.993622,861.330811 
	C415.297546,866.841919 413.326477,872.707703 410.882690,878.769531 
z"/>
<path fill="#000000" opacity="1.000000" stroke="none" 
	d="
M778.630371,436.584503 
	C781.079712,434.753540 782.826721,434.907532 784.217957,437.410919 
	C785.105225,439.007294 786.106812,440.546875 787.146423,442.050201 
	C788.728699,444.338440 788.193359,445.922028 785.866699,447.355408 
	C771.708252,456.077850 757.580322,464.850159 743.474365,473.657379 
	C741.514709,474.880890 740.102173,474.686340 738.911865,472.699127 
	C738.314209,471.701385 737.714050,470.686798 736.976196,469.794617 
	C733.895752,466.069794 734.769531,463.732361 738.911743,461.247681 
	C752.171326,453.293854 765.200684,444.956238 778.630371,436.584503 
z"/>
<path fill="#000000" opacity="1.000000" stroke="none" 
	d="
M376.159546,897.136780 
	C371.496887,901.049988 368.713257,896.437744 365.526581,894.979248 
	C362.214844,893.463379 364.945892,890.901978 365.846222,889.078552 
	C372.765900,875.064392 380.005676,861.205200 386.734894,847.101685 
	C389.491608,841.324097 392.418152,844.929932 395.520172,846.076416 
	C399.118317,847.406311 400.382416,849.139038 398.305878,853.137146 
	C390.796539,867.595642 383.639893,882.237305 376.159546,897.136780 
z"/>
<path fill="#000000" opacity="1.000000" stroke="none" 
	d="
M555.884888,295.817444 
	C559.632751,293.830933 562.943054,295.795837 566.331421,296.142517 
	C568.122253,296.325775 568.480103,298.124451 568.241760,299.696320 
	C565.875427,315.304626 563.468262,330.906738 561.051697,346.507385 
	C560.750793,348.450531 559.555054,349.480164 557.566345,349.241455 
	C555.093140,348.944611 552.626038,348.565155 550.176636,348.111511 
	C547.744263,347.661041 547.565735,345.785004 547.875488,343.867523 
	C550.443481,327.970154 553.056091,312.079956 555.884888,295.817444 
z"/>
<path fill="#000000" opacity="1.000000" stroke="none" 
	d="
M808.238403,614.678101 
	C809.368347,614.705200 810.048218,614.635376 810.698547,614.743530 
	C813.352783,615.184753 817.307373,613.481262 818.297180,616.716248 
	C819.330505,620.093201 819.724365,624.307739 816.547791,627.324097 
	C815.431946,628.383667 815.538635,629.227295 816.059570,630.375671 
	C816.539673,631.434143 817.074158,632.497009 817.343994,633.615967 
	C817.916382,635.989502 819.403687,638.973633 817.064148,640.598145 
	C814.603027,642.307190 811.250916,641.497559 808.337402,640.844116 
	C806.429688,640.416321 806.833252,638.547546 806.638611,637.105652 
	C805.695007,630.115356 803.315491,627.759216 796.451599,627.187317 
	C791.807495,626.800354 787.153687,626.510437 782.499512,626.268494 
	C776.852966,625.974792 776.775269,625.618286 776.748108,619.010376 
	C776.728271,614.176514 778.630737,612.508789 783.369751,612.951416 
	C791.487244,613.709595 799.637939,614.111450 808.238403,614.678101 
z"/>
<path fill="#000000" opacity="1.000000" stroke="none" 
	d="
M587.326660,863.131958 
	C595.285767,860.830139 595.233276,860.844238 597.275574,868.446899 
	C599.647949,877.278381 602.209595,886.059937 604.494629,894.913391 
	C605.049011,897.061462 607.544434,900.126587 604.270447,901.464600 
	C600.810303,902.878662 596.907043,905.935120 592.838074,902.013184 
	C590.335510,904.130005 587.905823,906.378540 584.760925,907.632568 
	C582.405334,908.571777 581.104492,907.945984 580.142883,905.578613 
	C577.775146,899.749634 578.147888,898.605713 583.751648,895.440186 
	C588.132324,892.965454 589.448486,889.119141 588.214844,884.384399 
	C586.831726,879.075439 585.349060,873.791443 583.831055,868.519226 
	C582.981506,865.568420 583.595032,863.627625 587.326660,863.131958 
z"/>
<path fill="#000000" opacity="1.000000" stroke="none" 
	d="
M403.908691,356.947144 
	C400.756622,348.845123 397.684692,341.122620 394.770050,333.341217 
	C394.037598,331.385681 392.061157,329.214325 395.273376,327.332031 
	C399.865112,324.641296 403.228912,324.305481 406.035675,326.766541 
	C407.227539,325.442383 408.339783,324.025757 409.633362,322.800629 
	C415.387604,317.351135 417.665527,318.033508 419.999146,325.640717 
	C420.746887,328.078156 420.443970,329.449860 417.950287,330.807220 
	C412.027008,334.031372 410.717255,337.599579 412.821228,344.120056 
	C414.401947,349.018982 416.235748,353.848999 418.217468,358.601044 
	C419.432526,361.514526 419.056244,363.340179 415.861328,364.254913 
	C414.586060,364.620026 413.294952,365.025665 412.119690,365.625702 
	C408.911713,367.263580 407.171600,366.118408 406.202515,362.882843 
	C405.632324,360.979095 404.775177,359.161285 403.908691,356.947144 
z"/>
<path fill="#000000" opacity="1.000000" stroke="none" 
	d="
M455.877136,351.278076 
	C450.327911,347.464417 449.143097,342.291199 452.802887,338.655670 
	C455.725372,335.752533 459.208405,335.094208 462.803345,337.345978 
	C466.232544,339.493866 467.183350,342.854980 465.859039,346.498474 
	C464.255951,350.908997 460.792999,352.393494 455.877136,351.278076 
z"/>
<path fill="#000000" opacity="1.000000" stroke="none" 
	d="
M547.948120,884.941406 
	C542.890015,888.158691 538.959473,887.778870 536.293579,884.129089 
	C533.842102,880.772888 534.412781,875.930725 537.562256,873.365540 
	C540.722168,870.791748 545.684509,871.116211 548.312256,874.299744 
	C551.104675,877.682739 551.120056,881.224915 547.948120,884.941406 
z"/>
<path fill="#000000" opacity="1.000000" stroke="none" 
	d="
M784.929688,671.396729 
	C782.854553,675.931458 779.442993,677.170898 775.327332,676.011169 
	C771.756287,675.004944 769.872681,672.096863 769.953247,668.494873 
	C770.034485,664.861511 772.155762,662.306946 775.750977,661.286011 
	C781.449402,659.667603 785.525940,663.946716 784.929688,671.396729 
z"/>
</svg>